<svg xmlns="http://www.w3.org/2000/svg" xmlns:xlink="http://www.w3.org/1999/xlink" width="48" height="34" viewBox="0 0 48 34"><defs><path id="fwt4a" d="M422.592 77.47c-13.166-.976-21.753 1.547-23.592 1.555-1.839-.008-10.425-2.531-23.591-1.555-.409.578.273 3.112.273 3.112s.59-.045 1 .622c.41.666.455 1.288 1.273 3.422.818 2.133 1.183 6.8 9.277 6.8 7.048 0 9.05-5.556 9.55-6.578.483-.989 1.161-2.878 2.218-2.878s1.735 1.89 2.219 2.878c.5 1.022 2.501 6.578 9.55 6.578 8.093 0 8.458-4.667 9.276-6.8.818-2.134.864-2.756 1.273-3.422.41-.667 1-.622 1-.622s.682-2.534.274-3.112zm-44.376 1.388a.686.686 0 0 1-.693.677.686.686 0 0 1-.694-.677c0-.375.31-.678.694-.678.382 0 .693.303.693.678zm17.204 4.679c-.75 4.333-3.477 6.6-9.072 6.6-7.118 0-6.753-5.666-6.958-8.4-.204-2.733 2.366-3.082 3.002-3.067 2.842.115 7.23.267 7.98.4s5.798.133 5.048 4.467zm23.077-1.8c-.205 2.734.16 8.4-6.958 8.4-5.594 0-8.321-2.267-9.072-6.6-.75-4.334 4.298-4.334 5.048-4.467s5.139-.285 7.98-.4c.636-.015 3.207.334 3.002 3.067zm3.022-2.88a.686.686 0 0 1-.694.678.686.686 0 0 1-.694-.677c0-.375.311-.678.694-.678.383 0 .694.303.694.678zm-40.454 27.412c.826 4.73 5.712 4.406 9.162 3.25 2.635-.885 6.06-2.322 7.934-3.774.668-.518.993-1.07 1.124-1.64.13.57.455 1.122 1.123 1.64 1.875 1.452 5.3 2.889 7.935 3.773 3.45 1.157 8.336 1.481 9.161-3.249.34-1.944-.339-4.553-.339-3.889 0 .665-1.02 2.278-1.068 1.945-.049-.332-.486-1.234-.486-1.234s.195 2.134-1.892 2.324c-2.548.232-3.497-4.482-5.324-6.438-2.87-3.07-8.303-.469-9.017 3.11-.033.17-.066.34-.093.509a12.282 12.282 0 0 0-.093-.51c-.715-3.578-6.148-6.18-9.018-3.11-1.827 1.957-2.776 6.67-5.323 6.44-2.088-.19-1.894-2.325-1.894-2.325s-.437.902-.485 1.234c-.048.333-1.067-1.28-1.067-1.945 0-.664-.679 1.945-.34 3.89z"/></defs><g><g transform="translate(-375 -77)"><use fill="#444" xlink:href="#fwt4a"/></g></g></svg>