<svg xmlns="http://www.w3.org/2000/svg" xmlns:xlink="http://www.w3.org/1999/xlink" width="15" height="16" viewBox="0 0 15 16"><defs><path id="dyrza" d="M1528.724 57.668c0 .75-.213 1.485-.615 2.128l-.365.582-.514.416c-.725.589-1.6.898-2.532.898a4.029 4.029 0 0 1-4.025-4.024 4.03 4.03 0 0 1 4.025-4.026 4.03 4.03 0 0 1 4.026 4.026zm-9.84 0a5.816 5.816 0 0 0 5.814 5.815c1.388 0 2.66-.488 3.659-1.298.046.08.087.164.156.233l3.622 3.623a1.022 1.022 0 0 0 1.448 0c.4-.401.4-1.049 0-1.45l-3.622-3.622a1.035 1.035 0 0 0-.336-.224c.56-.892.888-1.945.888-3.077a5.815 5.815 0 0 0-11.63 0z"/></defs><g><g transform="translate(-1519 -51)"><use fill="#888" xlink:href="#dyrza"/></g></g></svg>